<svg width="31" height="29" viewBox="0 0 31 29" fill="none" xmlns="http://www.w3.org/2000/svg">
<path d="M1.5 1.89999H9.9C11.3852 1.89999 12.8096 2.48999 13.8598 3.5402C14.91 4.5904 15.5 6.01478 15.5 7.49999V27.1C15.5 25.9861 15.0575 24.9178 14.2698 24.1301C13.4822 23.3425 12.4139 22.9 11.3 22.9H1.5V1.89999Z" stroke="#777777" stroke-width="2" stroke-linecap="round" stroke-linejoin="round"/>
<path d="M29.5 1.89999H21.1C19.6148 1.89999 18.1904 2.48999 17.1402 3.5402C16.09 4.5904 15.5 6.01478 15.5 7.49999V27.1C15.5 25.9861 15.9425 24.9178 16.7302 24.1301C17.5178 23.3425 18.5861 22.9 19.7 22.9H29.5V1.89999Z" stroke="#777777" stroke-width="2" stroke-linecap="round" stroke-linejoin="round"/>
</svg>
