<svg width="211" height="50" viewBox="0 0 211 50" fill="none" xmlns="http://www.w3.org/2000/svg">
<path d="M1.21875 25.0909H7.60796L12.0028 35.8011H12.2244L16.6193 25.0909H23.0085V44H17.9858V33.0682H17.8381L13.6278 43.8523H10.5994L6.3892 32.9943H6.24148V44H1.21875V25.0909ZM25.7014 44V25.0909H39.3292V29.2273H30.8349V32.4773H38.6275V36.6136H30.8349V39.8636H39.2923V44H25.7014ZM49.4108 44H42.1352V25.0909H49.3369C51.282 25.0909 52.9624 25.4695 54.3781 26.2266C55.8 26.9775 56.8957 28.0608 57.6651 29.4766C58.4406 30.8861 58.8284 32.5758 58.8284 34.5455C58.8284 36.5152 58.4437 38.2079 57.6743 39.6236C56.9049 41.0331 55.8154 42.1165 54.4058 42.8736C52.9963 43.6245 51.3313 44 49.4108 44ZM47.2688 39.642H49.2261C50.1618 39.642 50.9589 39.4912 51.6175 39.1896C52.2823 38.888 52.787 38.3679 53.1317 37.6293C53.4825 36.8906 53.658 35.8627 53.658 34.5455C53.658 33.2282 53.4795 32.2003 53.1225 31.4616C52.7716 30.723 52.2546 30.2029 51.5713 29.9013C50.8942 29.5997 50.0633 29.4489 49.0784 29.4489H47.2688V39.642ZM66.5971 25.0909V44H61.4636V25.0909H66.5971ZM74.2019 44H68.6622L74.9036 25.0909H81.9207L88.1622 44H82.6224L78.486 30.2983H78.3383L74.2019 44ZM73.1678 36.5398H83.5826V40.3807H73.1678V36.5398ZM105.876 31C105.827 30.3845 105.596 29.9044 105.184 29.5597C104.778 29.215 104.159 29.0426 103.328 29.0426C102.799 29.0426 102.365 29.1072 102.026 29.2365C101.694 29.3596 101.447 29.5289 101.287 29.7443C101.127 29.9598 101.044 30.206 101.038 30.483C101.026 30.7107 101.066 30.9169 101.158 31.1016C101.257 31.2801 101.411 31.4432 101.62 31.5909C101.829 31.7325 102.097 31.8617 102.423 31.9787C102.749 32.0956 103.137 32.2003 103.586 32.2926L105.138 32.625C106.184 32.8466 107.08 33.139 107.824 33.5021C108.569 33.8653 109.179 34.2931 109.653 34.7855C110.126 35.2718 110.474 35.8196 110.696 36.429C110.924 37.0384 111.041 37.7031 111.047 38.4233C111.041 39.6667 110.73 40.7192 110.114 41.581C109.499 42.4427 108.618 43.0982 107.474 43.5476C106.335 43.9969 104.965 44.2216 103.365 44.2216C101.721 44.2216 100.287 43.9785 99.0623 43.4922C97.8436 43.0059 96.8956 42.258 96.2186 41.2486C95.5476 40.233 95.2091 38.9342 95.2029 37.3523H100.078C100.109 37.9309 100.253 38.4171 100.512 38.8111C100.77 39.205 101.134 39.5036 101.601 39.7067C102.075 39.9098 102.639 40.0114 103.291 40.0114C103.839 40.0114 104.297 39.9437 104.667 39.8082C105.036 39.6728 105.316 39.4851 105.507 39.245C105.698 39.005 105.796 38.7311 105.802 38.4233C105.796 38.134 105.701 37.8816 105.516 37.6662C105.338 37.4446 105.042 37.2476 104.63 37.0753C104.217 36.8968 103.66 36.7306 102.959 36.5767L101.075 36.1705C99.4008 35.8073 98.0805 35.201 97.1142 34.3516C96.1539 33.496 95.6769 32.3295 95.683 30.8523C95.6769 29.652 95.997 28.6025 96.6433 27.7038C97.2957 26.799 98.1975 26.0942 99.3485 25.5895C100.506 25.0848 101.832 24.8324 103.328 24.8324C104.854 24.8324 106.175 25.0878 107.289 25.5987C108.403 26.1096 109.262 26.8298 109.865 27.7592C110.474 28.6825 110.782 29.7628 110.788 31H105.876ZM113.259 44V25.0909H126.887V29.2273H118.393V32.4773H126.186V36.6136H118.393V39.8636H126.85V44H113.259ZM129.693 44V25.0909H137.855C139.259 25.0909 140.487 25.3464 141.539 25.8572C142.592 26.3681 143.41 27.1037 143.995 28.0639C144.58 29.0241 144.872 30.1752 144.872 31.517C144.872 32.8712 144.571 34.013 143.967 34.9425C143.37 35.8719 142.53 36.5736 141.447 37.0476C140.37 37.5215 139.111 37.7585 137.671 37.7585H132.796V33.7699H136.636C137.24 33.7699 137.754 33.696 138.178 33.5483C138.609 33.3944 138.939 33.1513 139.166 32.8189C139.4 32.4865 139.517 32.0526 139.517 31.517C139.517 30.9754 139.4 30.5353 139.166 30.1967C138.939 29.852 138.609 29.5997 138.178 29.4396C137.754 29.2734 137.24 29.1903 136.636 29.1903H134.827V44H129.693ZM140.773 35.321L145.5 44H139.923L135.307 35.321H140.773ZM151.907 25.0909L155.785 38.4233H155.933L159.81 25.0909H165.609L159.367 44H152.35L146.109 25.0909H151.907ZM172.823 25.0909V44H167.69V25.0909H172.823ZM193.17 32.1818H187.962C187.925 31.7509 187.827 31.3601 187.667 31.0092C187.513 30.6584 187.298 30.3568 187.021 30.1044C186.75 29.8459 186.42 29.6489 186.033 29.5135C185.645 29.3719 185.205 29.3011 184.712 29.3011C183.851 29.3011 183.121 29.5104 182.524 29.929C181.933 30.3475 181.484 30.9477 181.176 31.7294C180.874 32.5111 180.724 33.4498 180.724 34.5455C180.724 35.7027 180.878 36.6721 181.185 37.4538C181.499 38.2294 181.952 38.8142 182.543 39.2081C183.133 39.5959 183.844 39.7898 184.675 39.7898C185.149 39.7898 185.574 39.7313 185.949 39.6143C186.325 39.4912 186.651 39.3158 186.928 39.0881C187.205 38.8603 187.43 38.5864 187.602 38.2663C187.781 37.9401 187.901 37.5739 187.962 37.1676L193.17 37.2045C193.108 38.0047 192.883 38.8203 192.496 39.6513C192.108 40.4761 191.557 41.2393 190.843 41.9411C190.135 42.6366 189.258 43.1967 188.212 43.6214C187.165 44.0462 185.949 44.2585 184.565 44.2585C182.829 44.2585 181.271 43.8861 179.893 43.1413C178.52 42.3965 177.434 41.3009 176.633 39.8544C175.839 38.4079 175.442 36.6383 175.442 34.5455C175.442 32.4403 175.849 30.6676 176.661 29.2273C177.474 27.7808 178.569 26.6882 179.948 25.9496C181.327 25.2048 182.866 24.8324 184.565 24.8324C185.759 24.8324 186.857 24.9955 187.861 25.3217C188.864 25.648 189.744 26.125 190.501 26.7528C191.258 27.3745 191.868 28.1409 192.329 29.0518C192.791 29.9628 193.071 31.0062 193.17 32.1818ZM195.759 44V25.0909H209.387V29.2273H200.892V32.4773H208.685V36.6136H200.892V39.8636H209.35V44H195.759Z" fill="url(#paint0_linear_101_703)"/>
<path d="M62.2461 16H61.1919V4.11328H62.2461V16ZM57.5146 3.63184H65.915V4.63623H57.5146V3.63184ZM67.2222 7.30908H68.21V9.08545H68.2764V16H67.2222V7.30908ZM67.9112 11.0693C67.9112 10.2227 68.0357 9.51156 68.2847 8.93604C68.5338 8.35498 68.8741 7.92334 69.3057 7.64111C69.7429 7.35889 70.2354 7.21777 70.7833 7.21777C70.9327 7.21777 71.0627 7.22884 71.1734 7.25098C71.2841 7.26758 71.3671 7.29248 71.4224 7.32568V8.32178C71.356 8.29411 71.2592 8.27197 71.1319 8.25537C71.0102 8.23324 70.8774 8.22217 70.7335 8.22217C70.1967 8.22217 69.7457 8.34668 69.3804 8.5957C69.0152 8.83919 68.7385 9.19613 68.5504 9.6665C68.3678 10.1313 68.2764 10.693 68.2764 11.3516H67.9112V11.0693ZM72.7047 10.0483C72.7379 9.42855 72.9261 8.8973 73.2692 8.45459C73.6123 8.00635 74.0412 7.66878 74.5558 7.44189C75.0705 7.20947 75.5962 7.09326 76.133 7.09326C76.6974 7.09326 77.2065 7.19564 77.6603 7.40039C78.1196 7.59961 78.4821 7.9012 78.7477 8.30518C79.0189 8.70915 79.1545 9.19889 79.1545 9.77441V16H78.175V14.4644H78.1335C78.0006 14.7743 77.807 15.0565 77.5524 15.311C77.2978 15.5601 76.9852 15.7593 76.6144 15.9087C76.2492 16.0581 75.8369 16.1328 75.3776 16.1328C74.8629 16.1328 74.3953 16.0332 73.9748 15.834C73.5542 15.6348 73.2222 15.3525 72.9787 14.9873C72.7352 14.6165 72.6134 14.1849 72.6134 13.6924C72.6134 13.2497 72.7241 12.8568 72.9455 12.5137C73.1724 12.165 73.4878 11.8828 73.8918 11.667C74.2957 11.4456 74.7716 11.2879 75.3195 11.1938L76.714 10.9614C77.0682 10.9006 77.3504 10.8148 77.5607 10.7041C77.771 10.5879 77.9232 10.444 78.0172 10.2725C78.1169 10.0954 78.1667 9.87679 78.1667 9.6167C78.1667 9.34001 78.0864 9.07715 77.9259 8.82812C77.7655 8.57357 77.533 8.37158 77.2287 8.22217C76.9243 8.06722 76.5701 7.98975 76.1662 7.98975C75.7345 7.98975 75.3306 8.08382 74.9543 8.27197C74.5835 8.46012 74.2819 8.73128 74.0495 9.08545C73.8226 9.43962 73.7064 9.85465 73.7008 10.3306L72.7047 10.0483ZM73.6759 13.7007C73.6759 13.9995 73.7506 14.2624 73.9001 14.4893C74.0495 14.7161 74.2653 14.8932 74.5475 15.0205C74.8297 15.1478 75.1618 15.2114 75.5436 15.2114C75.9753 15.2114 76.3903 15.098 76.7887 14.8711C77.1927 14.6442 77.522 14.3039 77.7765 13.8501C78.0366 13.3908 78.1667 12.8346 78.1667 12.1816V11.4014C77.9121 11.5397 77.403 11.6808 76.6393 11.8247L75.4938 12.0322C74.8851 12.1484 74.4285 12.3477 74.1242 12.6299C73.8254 12.9121 73.6759 13.269 73.6759 13.7007ZM81.989 7.30908H82.9768V8.81982H83.0432V16H81.989V7.30908ZM82.5037 10.9697C82.5037 10.1618 82.6475 9.46729 82.9353 8.88623C83.2286 8.29964 83.616 7.85417 84.0974 7.5498C84.5844 7.24544 85.1156 7.09326 85.6912 7.09326C86.2279 7.09326 86.7232 7.21501 87.177 7.4585C87.6363 7.70199 88.0015 8.07275 88.2727 8.5708C88.5494 9.06885 88.6877 9.67757 88.6877 10.397V16H87.6335V10.7373C87.6335 10.1839 87.545 9.71077 87.3679 9.31787C87.1964 8.92497 86.9473 8.62614 86.6208 8.42139C86.2999 8.2111 85.9236 8.10596 85.4919 8.10596C85.0492 8.10596 84.6425 8.2194 84.2717 8.44629C83.901 8.67318 83.6021 9.00798 83.3752 9.45068C83.1539 9.88786 83.0432 10.408 83.0432 11.0112L82.5037 10.9697ZM94.2117 16.1328C93.5753 16.1328 92.9998 16.0028 92.4852 15.7427C91.9761 15.4826 91.5693 15.1423 91.265 14.7217C90.9606 14.2956 90.789 13.8473 90.7503 13.377L91.7215 13.0864C91.7824 13.5125 91.9263 13.8861 92.1531 14.207C92.3856 14.5225 92.6816 14.766 93.0413 14.9375C93.401 15.109 93.8022 15.1948 94.2449 15.1948C94.6489 15.1948 95.0003 15.1229 95.2991 14.979C95.598 14.8351 95.8249 14.6442 95.9798 14.4062C96.1403 14.1628 96.2205 13.8971 96.2205 13.6094C96.2205 13.1888 96.0905 12.854 95.8304 12.605C95.5758 12.356 95.1857 12.1816 94.66 12.082L93.307 11.833C92.6097 11.7002 92.0535 11.4429 91.6385 11.061C91.229 10.6792 91.0242 10.1812 91.0242 9.56689C91.0242 9.11312 91.1598 8.69808 91.431 8.32178C91.7077 7.94548 92.0812 7.64665 92.5516 7.42529C93.0275 7.20394 93.5504 7.09326 94.1204 7.09326C94.6517 7.09326 95.147 7.20671 95.6063 7.43359C96.0711 7.66048 96.4529 7.98145 96.7518 8.39648C97.0506 8.80599 97.2305 9.27083 97.2913 9.79102L96.3367 10.0815C96.298 9.68311 96.1735 9.32617 95.9632 9.01074C95.7529 8.68978 95.479 8.44076 95.1414 8.26367C94.8039 8.08105 94.4303 7.98975 94.0208 7.98975C93.639 7.98975 93.3014 8.05892 93.0081 8.19727C92.7148 8.33561 92.4879 8.521 92.3275 8.75342C92.167 8.98584 92.0867 9.23763 92.0867 9.50879C92.0867 9.88509 92.2029 10.1895 92.4354 10.4219C92.6678 10.6488 93.0441 10.812 93.5643 10.9116L95.1165 11.2021C95.7861 11.3294 96.3146 11.5868 96.702 11.9741C97.0893 12.3615 97.283 12.8761 97.283 13.5181C97.283 14.0106 97.1613 14.4533 96.9178 14.8462C96.6798 15.2391 96.3284 15.5518 95.8636 15.7842C95.3988 16.0166 94.8481 16.1328 94.2117 16.1328ZM102.052 16.0498C101.421 16.0498 100.926 15.8921 100.566 15.5767C100.212 15.2612 100.035 14.7909 100.035 14.1655V8.28857H98.6234V7.30908H100.043V4.42871H101.089V7.30908H102.849V8.28857H101.089V14.0244C101.089 14.3841 101.188 14.6497 101.388 14.8213C101.592 14.9928 101.872 15.0786 102.226 15.0786C102.386 15.0786 102.561 15.0592 102.749 15.0205V15.9585C102.6 16.0194 102.367 16.0498 102.052 16.0498ZM108.323 16.1328C107.603 16.1328 106.931 15.9557 106.306 15.6016C105.686 15.2419 105.188 14.7189 104.812 14.0327C104.435 13.341 104.247 12.522 104.247 11.5757C104.247 10.6903 104.424 9.90723 104.778 9.22656C105.138 8.54036 105.622 8.01465 106.231 7.64941C106.845 7.27865 107.523 7.09326 108.265 7.09326C108.956 7.09326 109.587 7.25651 110.157 7.58301C110.727 7.90951 111.181 8.39095 111.519 9.02734C111.856 9.6582 112.025 10.4108 112.025 11.2852C112.025 11.4733 112.017 11.6393 112 11.7832H104.994L104.986 10.8701H111.27L110.987 11.1191C110.987 10.4938 110.863 9.94873 110.614 9.48389C110.37 9.01904 110.041 8.66488 109.626 8.42139C109.211 8.17236 108.757 8.04785 108.265 8.04785C107.722 8.04785 107.224 8.18896 106.77 8.47119C106.322 8.74788 105.965 9.13802 105.7 9.6416C105.44 10.1396 105.31 10.7013 105.31 11.3267V11.5674C105.31 12.3366 105.451 12.9924 105.733 13.5347C106.021 14.077 106.397 14.4837 106.862 14.7549C107.327 15.026 107.819 15.1616 108.339 15.1616C108.777 15.1616 109.175 15.0786 109.535 14.9126C109.9 14.7466 110.207 14.5142 110.456 14.2153C110.705 13.9165 110.888 13.5734 111.004 13.186L111.975 13.5347C111.837 14.0382 111.59 14.4865 111.236 14.8794C110.882 15.2723 110.453 15.5794 109.95 15.8008C109.446 16.0221 108.904 16.1328 108.323 16.1328ZM114.395 3.32471H115.457V16H114.395V3.32471ZM121.861 16.1328C121.142 16.1328 120.469 15.9557 119.844 15.6016C119.224 15.2419 118.726 14.7189 118.35 14.0327C117.973 13.341 117.785 12.522 117.785 11.5757C117.785 10.6903 117.962 9.90723 118.317 9.22656C118.676 8.54036 119.16 8.01465 119.769 7.64941C120.383 7.27865 121.061 7.09326 121.803 7.09326C122.495 7.09326 123.125 7.25651 123.695 7.58301C124.265 7.90951 124.719 8.39095 125.057 9.02734C125.394 9.6582 125.563 10.4108 125.563 11.2852C125.563 11.4733 125.555 11.6393 125.538 11.7832H118.532L118.524 10.8701H124.808L124.526 11.1191C124.526 10.4938 124.401 9.94873 124.152 9.48389C123.909 9.01904 123.579 8.66488 123.164 8.42139C122.749 8.17236 122.295 8.04785 121.803 8.04785C121.261 8.04785 120.763 8.18896 120.309 8.47119C119.86 8.74788 119.504 9.13802 119.238 9.6416C118.978 10.1396 118.848 10.7013 118.848 11.3267V11.5674C118.848 12.3366 118.989 12.9924 119.271 13.5347C119.559 14.077 119.935 14.4837 120.4 14.7549C120.865 15.026 121.357 15.1616 121.878 15.1616C122.315 15.1616 122.713 15.0786 123.073 14.9126C123.438 14.7466 123.745 14.5142 123.994 14.2153C124.243 13.9165 124.426 13.5734 124.542 13.186L125.513 13.5347C125.375 14.0382 125.129 14.4865 124.775 14.8794C124.42 15.2723 123.992 15.5794 123.488 15.8008C122.984 16.0221 122.442 16.1328 121.861 16.1328ZM130.655 16.1328C130.019 16.1328 129.444 16.0028 128.929 15.7427C128.42 15.4826 128.013 15.1423 127.709 14.7217C127.404 14.2956 127.233 13.8473 127.194 13.377L128.165 13.0864C128.226 13.5125 128.37 13.8861 128.597 14.207C128.829 14.5225 129.125 14.766 129.485 14.9375C129.845 15.109 130.246 15.1948 130.689 15.1948C131.093 15.1948 131.444 15.1229 131.743 14.979C132.042 14.8351 132.269 14.6442 132.424 14.4062C132.584 14.1628 132.664 13.8971 132.664 13.6094C132.664 13.1888 132.534 12.854 132.274 12.605C132.02 12.356 131.629 12.1816 131.104 12.082L129.751 11.833C129.053 11.7002 128.497 11.4429 128.082 11.061C127.673 10.6792 127.468 10.1812 127.468 9.56689C127.468 9.11312 127.604 8.69808 127.875 8.32178C128.151 7.94548 128.525 7.64665 128.995 7.42529C129.471 7.20394 129.994 7.09326 130.564 7.09326C131.095 7.09326 131.591 7.20671 132.05 7.43359C132.515 7.66048 132.897 7.98145 133.196 8.39648C133.494 8.80599 133.674 9.27083 133.735 9.79102L132.78 10.0815C132.742 9.68311 132.617 9.32617 132.407 9.01074C132.197 8.68978 131.923 8.44076 131.585 8.26367C131.248 8.08105 130.874 7.98975 130.465 7.98975C130.083 7.98975 129.745 8.05892 129.452 8.19727C129.159 8.33561 128.932 8.521 128.771 8.75342C128.611 8.98584 128.53 9.23763 128.53 9.50879C128.53 9.88509 128.647 10.1895 128.879 10.4219C129.112 10.6488 129.488 10.812 130.008 10.9116L131.56 11.2021C132.23 11.3294 132.758 11.5868 133.146 11.9741C133.533 12.3615 133.727 12.8761 133.727 13.5181C133.727 14.0106 133.605 14.4533 133.362 14.8462C133.124 15.2391 132.772 15.5518 132.307 15.7842C131.842 16.0166 131.292 16.1328 130.655 16.1328ZM139.508 16.1328C138.706 16.1328 137.997 15.9253 137.383 15.5103C136.774 15.0952 136.307 14.5418 135.98 13.8501C135.659 13.1584 135.499 12.4113 135.499 11.6089C135.499 10.812 135.659 10.0677 135.98 9.37598C136.307 8.68424 136.774 8.13086 137.383 7.71582C137.997 7.30078 138.706 7.09326 139.508 7.09326C140.316 7.09326 141.024 7.30078 141.633 7.71582C142.247 8.13086 142.718 8.68424 143.044 9.37598C143.371 10.0677 143.534 10.812 143.534 11.6089C143.534 12.4113 143.371 13.1584 143.044 13.8501C142.718 14.5418 142.247 15.0952 141.633 15.5103C141.024 15.9253 140.316 16.1328 139.508 16.1328ZM139.508 15.1616C140.095 15.1616 140.612 15.0011 141.06 14.6802C141.514 14.3592 141.863 13.9276 142.106 13.3853C142.35 12.8429 142.471 12.2508 142.471 11.6089C142.471 10.967 142.35 10.3748 142.106 9.83252C141.863 9.2902 141.514 8.86133 141.06 8.5459C140.612 8.22493 140.095 8.06445 139.508 8.06445C138.927 8.06445 138.412 8.22493 137.964 8.5459C137.516 8.86133 137.17 9.2902 136.927 9.83252C136.683 10.3748 136.561 10.967 136.561 11.6089C136.561 12.2508 136.683 12.8429 136.927 13.3853C137.17 13.9276 137.516 14.3592 137.964 14.6802C138.412 15.0011 138.927 15.1616 139.508 15.1616ZM146.153 8.28857H144.708V7.30908H146.153V5.3335C146.153 4.88525 146.241 4.50342 146.418 4.18799C146.595 3.86702 146.842 3.6263 147.157 3.46582C147.478 3.30534 147.843 3.2251 148.253 3.2251C148.491 3.2251 148.69 3.2417 148.85 3.2749V4.22949C148.756 4.21289 148.624 4.20459 148.452 4.20459C148.031 4.20459 147.719 4.30697 147.514 4.51172C147.309 4.71094 147.207 5.00423 147.207 5.3916V7.30908H148.967V8.28857H147.207V16.0083H146.153V8.28857ZM153.262 16.0498C152.631 16.0498 152.136 15.8921 151.776 15.5767C151.422 15.2612 151.245 14.7909 151.245 14.1655V8.28857H149.834V7.30908H151.253V4.42871H152.299V7.30908H154.059V8.28857H152.299V14.0244C152.299 14.3841 152.399 14.6497 152.598 14.8213C152.803 14.9928 153.082 15.0786 153.436 15.0786C153.597 15.0786 153.771 15.0592 153.959 15.0205V15.9585C153.81 16.0194 153.578 16.0498 153.262 16.0498Z" fill="black"/>
<defs>
<linearGradient id="paint0_linear_101_703" x1="105.5" y1="19" x2="105.5" y2="50" gradientUnits="userSpaceOnUse">
<stop stop-color="#2400FF"/>
<stop offset="1" stop-color="#8F00FF"/>
</linearGradient>
</defs>
</svg>
