<svg width="35" height="25" viewBox="0 0 35 25" fill="none" xmlns="http://www.w3.org/2000/svg">
<path d="M32.8301 4.77678C32.6573 4.0865 32.3055 3.45404 31.81 2.94328C31.3146 2.43252 30.6931 2.06155 30.0084 1.86784C27.5068 1.25696 17.5 1.25696 17.5 1.25696C17.5 1.25696 7.49325 1.25696 4.99156 1.92601C4.30686 2.11973 3.68541 2.4907 3.18998 3.00146C2.69454 3.51222 2.34266 4.14468 2.16989 4.83495C1.71204 7.37381 1.48808 9.94932 1.50083 12.5291C1.48451 15.1283 1.70848 17.7234 2.16989 20.2814C2.36036 20.9503 2.72012 21.5587 3.21441 22.0478C3.70869 22.537 4.32079 22.8905 4.99156 23.074C7.49325 23.7431 17.5 23.7431 17.5 23.7431C17.5 23.7431 27.5068 23.7431 30.0084 23.074C30.6931 22.8803 31.3146 22.5093 31.81 21.9986C32.3055 21.4878 32.6573 20.8553 32.8301 20.1651C33.2844 17.6453 33.5084 15.0895 33.4992 12.5291C33.5155 9.9299 33.2915 7.33475 32.8301 4.77678V4.77678Z" stroke="#777777" stroke-width="2" stroke-linecap="round" stroke-linejoin="round"/>
<path d="M14.2275 17.2851L22.5907 12.529L14.2275 7.77289V17.2851Z" stroke="#777777" stroke-width="2" stroke-linecap="round" stroke-linejoin="round"/>
</svg>
