<svg width="29" height="29" viewBox="0 0 29 29" fill="none" xmlns="http://www.w3.org/2000/svg">
<path d="M11 21.5V6.33333L25 4V19.1667" stroke="#777777" stroke-width="2" stroke-linecap="round" stroke-linejoin="round"/>
<path d="M7.5 25C9.433 25 11 23.433 11 21.5C11 19.567 9.433 18 7.5 18C5.567 18 4 19.567 4 21.5C4 23.433 5.567 25 7.5 25Z" stroke="#777777" stroke-width="2" stroke-linecap="round" stroke-linejoin="round"/>
<path d="M21.5 22.6667C23.433 22.6667 25 21.0997 25 19.1667C25 17.2337 23.433 15.6667 21.5 15.6667C19.567 15.6667 18 17.2337 18 19.1667C18 21.0997 19.567 22.6667 21.5 22.6667Z" stroke="#777777" stroke-width="2" stroke-linecap="round" stroke-linejoin="round"/>
</svg>
